<?xml version="1.0" standalone="no"?><!DOCTYPE svg PUBLIC "-//W3C//DTD SVG 1.1//EN" "http://www.w3.org/Graphics/SVG/1.1/DTD/svg11.dtd"><svg t="1729867299405" class="icon" viewBox="0 0 1024 1024" version="1.1" xmlns="http://www.w3.org/2000/svg" p-id="4192" xmlns:xlink="http://www.w3.org/1999/xlink" width="256" height="256"><path d="M759.785087 718.247471a41.872616 41.872616 0 0 0 63.649852-54.423081h-0.091467a459.760702 459.760702 0 0 0-183.003328-129.872223 292.764163 292.764163 0 0 0 126.064894-240.856434C766.405038 131.2671 635.183672 0 473.309305 0S180.213573 131.2671 180.213573 293.095733A292.695563 292.695563 0 0 0 306.278466 533.940734 460.583908 460.583908 0 0 0 12.73683 963.025569a41.869186 41.869186 0 0 0 83.738372 0A376.834104 376.834104 0 0 1 759.785087 718.247471zM263.963377 293.095733a209.334495 209.334495 0 0 1 209.345928-209.345928c115.626181 0 209.357361 93.754047 209.357362 209.345928a209.357361 209.357361 0 0 1-209.357362 209.357361c-115.660481 0-209.345928-93.731181-209.345928-209.357361zM713.148166 831.884237a41.869186 41.869186 0 0 0 41.869185 41.880619h214.376633a41.880619 41.880619 0 0 0 0-83.749805h-214.376633a41.869186 41.869186 0 0 0-41.869185 41.869186zM616.512896 940.250195h-65.993703a41.880619 41.880619 0 0 0 0 83.749805h65.993703a41.880619 41.880619 0 0 0 0-83.749805z" p-id="4193" fill="#515151"></path><path d="M616.512896 790.015051h-65.993703a41.880619 41.880619 0 0 0 0 83.749805h65.993703a41.880619 41.880619 0 0 0 0-83.749805zM969.393984 940.250195h-214.376633a41.880619 41.880619 0 0 0 0 83.749805h214.376633a41.880619 41.880619 0 0 0 0-83.749805z" p-id="4194" fill="#515151"></path></svg>