<?xml version="1.0" standalone="no"?><!DOCTYPE svg PUBLIC "-//W3C//DTD SVG 1.1//EN" "http://www.w3.org/Graphics/SVG/1.1/DTD/svg11.dtd"><svg t="1729867194681" class="icon" viewBox="0 0 1024 1024" version="1.1" xmlns="http://www.w3.org/2000/svg" p-id="3112" xmlns:xlink="http://www.w3.org/1999/xlink" width="256" height="256"><path d="M536.938995 570.71731c74.082252-41.015136 124.95285-119.054513 124.95285-209.545481 0-132.546805-107.874893-240.421698-240.421698-240.421698S181.049472 228.625024 181.049472 361.171829c0 90.490967 50.870598 168.530344 124.95285 209.545481-139.823536 48.111764-240.712317 180.641173-240.712317 336.598154h47.490618c0-163.606195 128.048351-297.53037 289.135166-307.697941 6.559393 0.539282 12.857842 1.977028 19.554358 1.977028s12.993942-1.437745 19.554358-1.977028c161.086815 10.168594 289.135166 144.092769 289.135167 307.697941h47.490617c0.001023-155.956981-100.885711-288.48639-240.711294-336.598154zM234.476289 361.171829c0-103.097076 83.896782-186.994881 186.994882-186.994881s186.994881 83.896782 186.994881 186.994881-83.896782 186.994881-186.994881 186.994882-186.994881-83.897805-186.994882-186.994882z" fill="#515151" p-id="3113"></path><path d="M800.956088 507.545548c45.835931-30.635741 76.128865-82.778308 76.128864-141.921313 0-94.100168-76.56991-170.670078-170.670077-170.670078v47.490617c67.943438 0 123.17946 55.236022 123.17946 123.179461s-55.236022 123.17946-123.17946 123.17946v47.490617c112.930025 0 204.803479 91.874477 204.803479 204.80348h47.490617c0-105.663528-65.412802-196.038862-157.752883-233.552244z" fill="#515151" p-id="3114"></path></svg>