<?xml version="1.0" standalone="no"?><!DOCTYPE svg PUBLIC "-//W3C//DTD SVG 1.1//EN" "http://www.w3.org/Graphics/SVG/1.1/DTD/svg11.dtd"><svg t="1731426253639" class="icon" viewBox="0 0 1206 1024" version="1.1" xmlns="http://www.w3.org/2000/svg" p-id="9314" width="301.5" height="256" xmlns:xlink="http://www.w3.org/1999/xlink"><path d="M222.610445 214.632578C235.922126 270.622096 289.424846 312.861085 363.0048 325.368214c73.506813 12.507129 155.973411-6.5827 216.205112-50.101658 60.268272-43.482388 89.19558-104.774636 75.883898-160.764153-13.311681-56.026088-66.814401-98.228507-140.394354-110.735636C465.694914-4.571319 379.424978 18.541271 255.99936 73.141107c-31.121541 56.976922-42.238989 104.152936-33.388915 141.491471z" fill="#707070" p-id="9315" data-spm-anchor-id="a313x.search_index.0.i27.6e903a81GiaDHM" class="selected"></path><path d="M790.368288 327.964724C868.556131 334.98627 989.348669 292.564428 1005.585995 255.993874c16.200755-36.570553 16.200755-106.566593-18.5047-160.61787-34.742026-54.087849-90.073273-87.1842-168.334258-94.205746-78.224414-7.021546-216.095401 44.360081-262.210868 94.205746-46.078897 49.845664 16.566461 79.796948 51.271916 133.848225 34.742026 54.087849 104.299219 91.718948 182.560203 98.740495z" fill="#707070" p-id="9316" data-spm-anchor-id="a313x.search_index.0.i26.6e903a81GiaDHM" class="selected"></path><path d="M1121.843785 609.594556c3.657055-4.863884 7.204399-9.800908 10.532319-14.920786 1.645675-2.63308 3.364491-5.193019 4.973595-7.93581a234.56353 234.56353 0 0 0 10.276326-19.528675l2.852503-5.851289c2.303945-5.485583 4.461608-10.971166 6.509558-17.041878l1.828528-5.30273a233.90526 233.90526 0 0 0 9.142639-38.32594c17.15159-109.528808-64.217892-221.763836-162.373258-244.693574h-73.616524c-257.310414 512.207172-355.100074 768.201047-293.405551 767.981624a1443.220323 1443.220323 0 0 0 267.806163-23.624578 196.859289 196.859289 0 0 0 161.641847-189.801172v-79.102108c0.365706-40.191038 15.615626-78.846113 42.860689-108.577973a208.452155 208.452155 0 0 0 7.862669-9.435203l3.108497-3.839908z" fill="#707070" p-id="9317" data-spm-anchor-id="a313x.search_index.0.i25.6e903a81GiaDHM" class="selected"></path><path d="M727.905782 39.679051l7.204399 0.219423c4.498178 0.219423 9.032927 0.511988 13.567676 0.877693l-10.605461-0.731411a316.700993 316.700993 0 0 1 25.672529 2.377086 183.949884 183.949884 0 0 1 14.189375 2.230804l3.730196 0.69484c102.982679 19.748099 177.915743 88.281316 176.196927 164.53092-0.219423 10.276326-1.828528 20.516081-4.790743 30.536413l-0.548558 1.645675c-0.585129 2.01138-1.279969 4.022761-2.047951 5.99757l-0.585129 1.462822c-1.828528 4.754172-4.022761 9.435203-6.509558 14.043093l5.30273 1.023976c72.70226 16.456749 125.071293 74.421076 142.259453 146.428496a229.992211 229.992211 0 0 1-0.585129 108.431691 233.429843 233.429843 0 0 1-60.78026 109.419096 159.92303 159.92303 0 0 0-38.581934 102.39755v79.138677c-1.718816 93.474335-71.312579 172.869006-166.5423 189.947455a1529.746253 1529.746253 0 0 1-275.924826 23.588007c-95.376004 0.365706-190.532584-8.191804-284.153201-25.599387-94.096034-17.297872-162.665822-95.924562-164.421209-188.338351v-92.633212a101.519856 101.519856 0 0 0-34.37632-74.457647 203.807695 203.807695 0 0 1-2.925644-2.852503l-2.998786-2.925644a203.51513 203.51513 0 0 1-53.758713-98.740495v0.585129a228.712242 228.712242 0 0 1-3.657056-83.490573l0.365706-2.59651a226.188873 226.188873 0 0 1 4.169043-21.137779l-2.047951 9.069497 1.462822-6.838694 0.585129-2.230803a242.645622 242.645622 0 0 1 9.837479-31.084971c0.365706-0.767982 0.65827-1.572534 1.023975-2.413656a228.821953 228.821953 0 0 1 66.741261-91.17039l1.682245-1.27997a146.647919 146.647919 0 0 1 5.851289-4.64446c0.365706-0.182853 0.694841-0.438847 0.987405-0.65827a205.526511 205.526511 0 0 1 64.035039-32.182087 110.589354 110.589354 0 0 1-6.875264-19.930952l0.109711 0.548559-0.109711-0.475418c-12.177994-49.479959 9.874049-100.898157 54.014707-140.796631l2.925644-2.559938c1.462822-1.31654 2.998785-2.63308 4.57132-3.913049l1.243398-0.987405a201.50375 201.50375 0 0 1 13.787099-10.459179l-6.948405 5.046737c16.383608-12.433988 35.107731-23.441725 55.733523-32.438081l1.097117-0.438847a306.168674 306.168674 0 0 1 99.618188-24.502271h0.65827c7.387252-0.585129 14.701363-0.841123 21.869191-0.841123 4.095902 0 8.155233 0.073141 12.214565 0.255994l0.475417 0.036571a253.799641 253.799641 0 0 1 20.369798 1.609104c4.388466 0.511988 8.776933 1.097117 13.092258 1.828528l-9.398632-1.353111 6.509559 0.914264 2.889073 0.438847 2.377086 0.438847 0.6217 0.109711c43.226394 7.679816 79.358101 25.416535 104.335789 49.955376l4.461607 4.57132 3.766767-3.364491c13.89681-11.666007 30.097566-21.576627 47.980566-29.512437l0.841123-0.365706c2.523368-1.097117 5.083307-2.194233 7.679816-3.218208l1.023976-0.365706c2.230804-0.914264 4.534749-1.828528 6.875264-2.63308l3.181638-1.097116a219.38675 219.38675 0 0 1 13.89681-4.388467l5.485583-1.499392 3.94962-0.987405c1.682245-0.438847 3.401061-0.841123 5.119878-1.206829l4.022761-0.877693c2.194233-0.475417 4.388466-0.914264 6.65584-1.31654l2.706221-0.475417c2.047951-0.365706 4.132473-0.731411 6.216994-1.023976l4.059332-0.585128c2.194233-0.329135 4.351896-0.585129 6.546129-0.841123l3.839908-0.402276 5.705006-0.548559 3.657056-0.255993c5.339301-0.402276 10.715172-0.65827 16.164184-0.731411h11.958571z" fill="#bfbfbf" p-id="9318" data-spm-anchor-id="a313x.search_index.0.i18.6e903a81GiaDHM" class=""></path><path d="M490.343467 121.962796l0.365705 0.365705c71.458862 79.467813 44.835499 239.756549-27.062209 269.52498-40.081327 16.52989-101.154151-4.132473-150.048981-43.518959C279.038809 314.067913 254.755961 270.110108 255.99936 225.238039c1.279969-42.31213 25.599387-95.229721 76.761592-119.951416 54.563266-26.623363 118.598305-11.336872 157.545944 16.712743z" fill="#707070" p-id="9319" data-spm-anchor-id="a313x.search_index.0.i21.6e903a81GiaDHM" class="selected"></path><path d="M474.69127 107.298004c5.668436 4.461608 10.861454 9.398632 15.652197 14.664792-38.947639-28.049615-102.982679-43.336106-157.545945-16.749314C281.671889 129.971747 257.3159 182.889338 255.99936 225.201468c-1.279969 44.90864 23.039449 88.829874 57.598622 123.169625-44.981781-36.204848-79.577524-88.135034-78.041561-141.454901 1.279969-42.31213 25.599387-95.229721 76.761592-119.951416 56.867211-27.72048 123.974176-9.983761 162.336686 20.333228z" fill="#707070" p-id="9320" data-spm-anchor-id="a313x.search_index.0.i28.6e903a81GiaDHM" class="selected"></path><path d="M587.840563 493.702472c82.795733-0.841123 160.105883 41.215014 212.328633 91.974942 37.301965 43.299535 55.660382 89.451574 44.177229 119.293146-22.308038 57.927757-159.849889 60.597407-277.46079 62.352793-97.606807 1.426252-203.624842 3.401061-250.508291-27.13535l-1.279969-2.523369c-30.463271-69.264628 107.115151-242.389629 272.743188-243.925591z" fill="#707070" p-id="9321" data-spm-anchor-id="a313x.search_index.0.i24.6e903a81GiaDHM" class=""></path><path d="M568.311887 473.040109c93.80347-0.950834 180.548823 53.100444 231.747597 112.527593-52.22275-50.723358-129.459759-92.706353-212.218921-91.86523-165.664607 1.572534-303.169888 174.697534-272.743188 243.962162l1.170257 2.486798c-9.508344-6.253565-16.639602-13.89681-20.662362-23.14916-30.463271-69.264628 107.078581-242.389629 272.743188-243.925592z" fill="#707070" p-id="9322" data-spm-anchor-id="a313x.search_index.0.i32.6e903a81GiaDHM" class="selected"></path><path d="M250.03836 370.094001l4.534749 2.925645c64.144751 44.689216 79.687236 150.560969 33.71805 190.678865-25.12397 21.942332-68.935493 24.758265-110.33336 12.433989-24.392559-13.567675-45.128063-32.913498-56.684358-57.050064-17.115019-35.65629-19.016688-92.633212 20.845216-127.704373 30.792406-27.06221 73.32396-29.987854 107.883132-21.284062z" fill="#707070" p-id="9323" data-spm-anchor-id="a313x.search_index.0.i22.6e903a81GiaDHM" class="selected"></path><path d="M241.553992 365.193547c2.925644 1.462822 5.741577 3.108497 8.520938 4.863884-34.632314-8.703792-77.163868-5.741577-107.956273 21.320632-39.861903 35.107731-37.960235 92.048083-20.845216 127.704373 11.556295 24.136565 32.291799 43.482388 56.684358 57.086634-39.167063-11.702577-76.213033-36.936259-93.254911-72.482837-17.115019-35.65629-19.016688-92.633212 20.845215-127.667802 39.861903-35.107731 99.508476-29.695289 136.005889-10.824884z" fill="#707070" p-id="9324" data-spm-anchor-id="a313x.search_index.0.i31.6e903a81GiaDHM" class="selected"></path><path d="M1032.245929 374.153333l3.291349 2.815932c1.682245 1.572534 3.32792 3.254779 4.900455 5.010166 26.184516 29.000449 23.514866 70.105751 10.60546 96.802255-25.74567 53.100444-106.895728 78.699831-153.998601 61.182536l1.170258 1.170258c-39.788762-36.021995-20.113804-136.847011 45.274345-166.030313 24.941117-11.154019 60.012278-13.494534 88.756734-0.950834z" fill="#707070" p-id="9325" data-spm-anchor-id="a313x.search_index.0.i29.6e903a81GiaDHM" class="selected"></path><path d="M1030.271119 372.507658l1.97481 1.645675c-28.744455-12.5437-63.815616-10.203184-88.756734 0.950834-65.38815 29.183302-85.063107 130.008318-45.274345 166.030313l-1.170258-1.170258a58.512886 58.512886 0 0 1-19.016688-11.26373c-39.788762-35.985425-20.113804-136.847011 45.274346-166.030313 30.499842-13.640816 76.249604-14.116234 106.968869 9.837479z" fill="#707070" p-id="9326" data-spm-anchor-id="a313x.search_index.0.i23.6e903a81GiaDHM" class="selected"></path><path d="M862.887695 132.239121c13.713958 9.727767 24.173136 21.722909 31.926094 34.778597 6.070712 21.17435 6.875264 42.787548 4.242184 60.707119-15.469344 106.200887-167.017718 189.398897-236.794334 151.767797-13.019117-7.058117-23.880571-18.577841-32.36494-33.132922-20.004093-66.08299-4.461608-160.764153 59.244297-206.075069 43.62867-31.011829 120.426833-45.969186 173.746699-8.045522z" fill="#707070" p-id="9327" data-spm-anchor-id="a313x.search_index.0.i20.6e903a81GiaDHM" class="selected"></path><path d="M849.832008 101.556427c23.990283 17.041878 38.033376 40.99559 45.018351 65.534432a113.112722 113.112722 0 0 0-31.962664-34.851738c-53.319867-37.923664-130.118029-22.966308-173.746699 8.045522-63.669334 45.274345-79.211819 139.882367-59.317438 206.001928-36.826547-63.41334-28.159326-183.730461 46.26175-236.684622 43.62867-30.975259 120.426833-45.969186 173.7467-8.045522z" fill="#707070" p-id="9328" data-spm-anchor-id="a313x.search_index.0.i30.6e903a81GiaDHM" class="selected"></path><path d="M831.985578 822.837454a54.85583 54.85583 0 0 1 81.991181 42.056136 54.85583 54.85583 0 0 1-109.126532 0 54.85583 54.85583 0 0 1 27.135351-42.056136z" fill="#707070" p-id="9329" data-spm-anchor-id="a313x.search_index.0.i33.6e903a81GiaDHM" class="selected"></path><path d="M831.985578 811.866287a54.85583 54.85583 0 0 1 81.991181 53.027303 54.85583 54.85583 0 0 0-109.126532 0 54.85583 54.85583 0 0 1 27.135351-53.027303z" fill="#FFB702" p-id="9330"></path><path d="M170.713022 629.160997m36.014965-6.35041l0 0q36.014965-6.35041 42.365374 29.664555l12.70082 72.029929q6.35041 36.014965-29.664554 42.365375l0 0q-36.014965 6.35041-42.365375-29.664555l-12.70082-72.029929q-6.35041-36.014965 29.664555-42.365375Z" fill="#FFF8DD" p-id="9331"></path><path d="M219.428807 804.552177m36.570553 0l0 0q36.570553 0 36.570554 36.570553l0 0q0 36.570553-36.570554 36.570554l0 0q-36.570553 0-36.570553-36.570554l0 0q0-36.570553 36.570553-36.570553Z" fill="#FFF8DD" p-id="9332"></path></svg>