<?xml version="1.0" standalone="no"?><!DOCTYPE svg PUBLIC "-//W3C//DTD SVG 1.1//EN" "http://www.w3.org/Graphics/SVG/1.1/DTD/svg11.dtd"><svg t="1731424946080" class="icon" viewBox="0 0 1024 1024" version="1.1" xmlns="http://www.w3.org/2000/svg" p-id="2427" width="256" height="256" xmlns:xlink="http://www.w3.org/1999/xlink"><path d="M995.45856 495.232l0.064-0.064-183.36-186.176V183.936c0-25.664-15.872-41.728-41.984-41.728-26.112 0-45.504 18.112-45.504 43.776v42.688L538.69056 45.824a47.36 47.36 0 0 0-29.44-14.528h-0.128a50.944 50.944 0 0 0-2.112-0.192h-0.384a47.488 47.488 0 0 0-36.544 14.208l-455.552 448A45.952 45.952 0 0 0 0.00256 526.912c0 25.664 21.12 46.528 47.296 46.528 12.928 0 24.64-5.12 33.152-13.44l423.68-416.64 1.216 1.088 423.36 416.512 0.128-0.128a47.36 47.36 0 0 0 79.36-33.92 45.76 45.76 0 0 0-12.8-31.616zM112.00256 587.008v347.52c0 25.6 17.664 41.664 43.776 41.664H852.48256c26.112 0 43.776-16 43.776-41.664v-347.52L504.13056 201.472 112.00256 587.008z m311.616-48.704c29.12-6.464 59.84 19.328 68.544 57.728 8.64 38.272-8 74.624-37.248 81.088-29.12 6.528-59.84-19.328-68.48-57.6-8.704-38.4 7.936-74.752 37.12-81.28z m-71.36 219.648c-28.352 9.344-61.568-13.184-74.112-50.432-12.608-37.248 0.192-75.136 28.544-84.544 28.416-9.408 61.568 13.184 74.24 50.496 12.544 37.184-0.32 75.008-28.672 84.48z m259.776 52.544c-1.856 48.32-54.528 85.504-117.696 83.2-63.168-2.368-112.832-43.456-111.04-91.712 1.856-48.256 54.528-85.504 117.76-83.2 63.04 2.432 112.768 43.52 110.976 91.712z m97.92-179.072c26.432 13.824 32.96 53.248 14.4 88-18.432 34.752-54.912 51.712-81.344 37.824-26.496-13.824-32.96-53.184-14.528-87.936 18.56-34.816 55.04-51.712 81.472-37.888zM520.32256 596.032c12.032-37.504 44.8-60.544 73.344-51.584 28.544 8.96 41.984 46.592 29.952 84.096-11.968 37.376-44.8 60.48-73.28 51.52-28.544-8.96-41.984-46.592-30.016-84.032z" fill="#bfbfbf" p-id="2428"></path></svg>