<?xml version="1.0" standalone="no"?><!DOCTYPE svg PUBLIC "-//W3C//DTD SVG 1.1//EN" "http://www.w3.org/Graphics/SVG/1.1/DTD/svg11.dtd"><svg t="1731425681178" class="icon" viewBox="0 0 1024 1024" version="1.1" xmlns="http://www.w3.org/2000/svg" p-id="1615" width="256" height="256" xmlns:xlink="http://www.w3.org/1999/xlink"><path d="M64 391.104h896V960a64 64 0 0 1-64 64H128a64 64 0 0 1-64-64V391.104z" fill="#bfbfbf" p-id="1616" data-spm-anchor-id="a313x.search_index.0.i2.6e903a81GiaDHM" class="selected"></path><path d="M227.2 594.048m32 0l448 0q32 0 32 32l0 0q0 32-32 32l-448 0q-32 0-32-32l0 0q0-32 32-32Z" fill="#bfbfbf" p-id="1617" data-spm-anchor-id="a313x.search_index.0.i5.6e903a81GiaDHM" class="selected"></path><path d="M227.2 755.584m32 0l320 0q32 0 32 32l0 0q0 32-32 32l-320 0q-32 0-32-32l0 0q0-32 32-32Z" fill="#bfbfbf" p-id="1618" data-spm-anchor-id="a313x.search_index.0.i6.6e903a81GiaDHM" class="selected"></path><path d="M922.24 6.848c-14.4-8.512-31.36-2.56-49.152 12.8l-27.392 31.296a368.64 368.64 0 0 1-78.08 70.4c-33.92 20.48-72.96 30.976-112.64 30.144H371.84c-40.96 0.064-80.64-13.696-112.832-39.04C243.008 99.84 217.472 71.872 181.12 32 153.92 1.6 127.872-7.04 104.768 5.696 88.576 14.08 78.464 32.96 71.68 60.8c-4.288 22.4-8 45.12-7.68 67.84V401.408h895.616V128.64c1.216-22.4-0.256-44.928-4.224-67.008-7.68-27.392-17.024-45.824-33.088-54.784z" fill="#bfbfbf" p-id="1619" data-spm-anchor-id="a313x.search_index.0.i4.6e903a81GiaDHM" class="selected"></path><path d="M218.368 331.328c2.88 10.24 8.128 19.584 15.296 27.392-23.68-0.64-46.08-10.88-61.952-28.544a90.112 90.112 0 0 1-30.528-69.504c-0.192-26.624 10.88-52.096 30.528-70.144 16.768-17.344 39.488-27.648 63.616-28.8-5.888 3.392-11.904 12.736-16.96 28.8a241.92 241.92 0 0 0-8.32 70.4c-0.704 23.808 2.112 47.488 8.32 70.4zM311.68 330.176c-16.512 17.28-38.912 27.52-62.72 28.864a70.4 70.4 0 0 0 15.232-27.328c6.208-22.784 9.088-46.4 8.448-70.016a241.088 241.088 0 0 0-8.448-70.4c-6.016-15.232-11.008-24.576-17.024-28.8a98.752 98.752 0 0 1 93.312 99.2c0.192 25.792-10.24 50.56-28.8 68.48zM482.816 239.488l11.904-2.56h36.48l11.84 2.56c2.56 2.56 1.728 5.952-1.728 8.512l-22.016 31.36a6.848 6.848 0 0 1-5.952 2.56l-5.888-2.56-22.784-31.36a8.448 8.448 0 0 1-1.728-8.256l-0.128-0.256zM618.496 367.552c-7.616 10.176-22.848 16.064-45.76 16.064-24.576 0-43.264-10.176-51.712-28.8l-1.728-1.728-5.952-2.56h-1.728l-5.888 2.56-1.664 1.728c-8.512 18.624-27.392 28.8-51.776 28.8-22.848 0-39.04-5.952-45.824-16v-11.968a57.472 57.472 0 0 0 37.312 12.736c22.976 2.56 39.04-4.224 49.28-22.08 5.952-12.8 8.832-26.88 8.448-41.024h22.016l1.728 16c1.664 11.968 2.56 20.608 7.616 24.704 10.24 16.96 26.24 24.576 49.216 22.08 13.44-0.576 26.368-4.992 37.312-12.8l-0.896 12.288zM763.52 331.072c4.224 13.696 8.512 22.848 13.696 27.392a90.752 90.752 0 0 1-61.568-28.032 88.32 88.32 0 0 1-28.8-69.44c-0.96-26.56 9.536-52.224 28.8-70.464a98.56 98.56 0 0 1 63.552-28.8c-5.952 3.392-11.008 13.696-15.232 28.8-7.68 22.656-11.2 46.528-10.24 70.4-1.024 23.936 2.368 47.744 9.984 70.4l-0.192-0.256zM855.104 330.176a88.576 88.576 0 0 1-61.568 28.864c5.888-4.224 10.112-13.696 14.336-27.328 7.68-18.624 10.24-43.328 10.24-70.4 0-27.136-2.56-51.776-10.24-70.4-4.224-15.232-9.28-25.408-16.96-28.864a92.8 92.8 0 0 1 64.512 28.928c19.136 18.432 29.568 44.16 28.672 70.72 0.96 25.984-9.6 51.008-28.8 68.48h-0.192z" fill="#FFFFFF" p-id="1620"></path></svg>