<?xml version="1.0" standalone="no"?><!DOCTYPE svg PUBLIC "-//W3C//DTD SVG 1.1//EN" "http://www.w3.org/Graphics/SVG/1.1/DTD/svg11.dtd"><svg t="1731426151502" class="icon" viewBox="0 0 1024 1024" version="1.1" xmlns="http://www.w3.org/2000/svg" p-id="6440" width="256" height="256" xmlns:xlink="http://www.w3.org/1999/xlink"><path d="M1021.44 471.04l-1.28-2.56 3.84-207.36-634.88 1.28c0 3.84 1.28 8.96 1.28 12.8 0 60.16-49.92 110.08-110.08 110.08-60.16 0-110.08-49.92-110.08-110.08 0-5.12 0-8.96 1.28-12.8H0v3.84c43.52 103.68 262.4 195.84 413.44 199.68l573.44-151.04v71.68L405.76 549.12v-61.44c-142.08-5.12-332.8-81.92-405.76-177.92v404.48c0 8.96 21.76 52.48 136.96 101.12 116.48 48.64 235.52 67.84 235.52 67.84l647.68-195.84V576h1.28l-1.28-2.56 1.28-102.4z m-34.56 190.72L405.76 837.12v-90.88l581.12-161.28v76.8z m0-170.24L405.76 652.8v-11.52l581.12-161.28v11.52z" p-id="6441" data-spm-anchor-id="a313x.search_index.0.i8.6e903a81GiaDHM" class="selected" fill="#bfbfbf"></path><path d="M279.04 352c42.24 0 76.8-34.56 76.8-76.8 0-37.12-26.88-69.12-62.72-75.52 1.28-23.04-7.68-43.52-24.32-58.88l-15.36 16.64c11.52 10.24 17.92 24.32 16.64 40.96-38.4 3.84-67.84 37.12-67.84 75.52 1.28 43.52 34.56 78.08 76.8 78.08zM245.76 230.4c14.08-10.24 30.72-10.24 37.12-1.28 6.4 8.96 1.28 25.6-11.52 35.84-14.08 10.24-30.72 10.24-37.12 1.28-7.68-8.96-2.56-25.6 11.52-35.84z" p-id="6442" data-spm-anchor-id="a313x.search_index.0.i10.6e903a81GiaDHM" class="selected" fill="#bfbfbf"></path></svg>