<?xml version="1.0" standalone="no"?><!DOCTYPE svg PUBLIC "-//W3C//DTD SVG 1.1//EN" "http://www.w3.org/Graphics/SVG/1.1/DTD/svg11.dtd"><svg t="1729867056321" class="icon" viewBox="0 0 1024 1024" version="1.1" xmlns="http://www.w3.org/2000/svg" p-id="1493" xmlns:xlink="http://www.w3.org/1999/xlink" width="256" height="256"><path d="M1018.4109 820.659139c-3.75451 19.924503-16.639307 32.851965-32.681305 32.851965h-2.687888c-31.529353 0.08533-57.042957 25.598933-57.128287 57.085621 0.426649 7.50902 2.175909 14.847381 5.077122 21.759094 7.67968 17.876588 1.791925 38.611725-14.079413 49.875255l-1.578601 1.023957-66.258573 36.47848a42.536894 42.536894 0 0 1-18.175242 4.181159c-12.458148 0-24.745636-5.247781-32.510646-13.951418-8.532978-9.258281-31.145369-28.372151-47.059372-28.372152-15.572684 0-38.56906 19.11387-46.590059 27.860173a44.798133 44.798133 0 0 1-49.149952 10.239573l-65.53327-36.435815c-17.27928-11.988834-23.295029-33.491938-15.444689-50.984542 1.365276-3.242532 4.991792-13.482105 4.991792-21.588434 0-31.444023-25.726928-57.085621-57.170952-57.085622h-2.261239c-16.468647 0-29.268114-12.970126-33.065289-32.937294a335.602017 335.602017 0 0 1-5.631765-52.904462c0-22.313737 5.034457-50.08858 5.631765-53.032457 3.83984-19.924503 16.639307-32.937294 32.681305-32.937294h2.687888a57.170951 57.170951 0 0 0 57.170951-56.957627c-0.426649-7.551685-2.133244-14.932711-5.119786-21.844423a41.256948 41.256948 0 0 1 14.164743-49.91792l1.578601-0.895963 67.922503-37.374443 1.279947-0.511978a45.182117 45.182117 0 0 1 48.765968 10.196908c8.276988 8.660972 30.505396 26.70822 45.90742 26.708221 15.146036 0 37.289113-17.663264 45.566102-26.281572a45.224782 45.224782 0 0 1 48.851298-9.727595l66.685221 36.905129c17.321945 11.946169 23.423024 33.534603 15.53002 51.027207a67.239865 67.239865 0 0 0-4.906463 21.631099 57.170951 57.170951 0 0 0 57.085622 56.957627h2.303904c16.425982 0 29.225449 12.970126 33.065289 32.979959 0.554644 2.986542 5.631765 30.71872 5.631765 53.032457 0 23.423024-5.631765 52.733803-5.546435 52.947127z m-49.747261-87.975001a108.966126 108.966126 0 0 1-94.801383-107.984834c0.213324-11.263531 2.133244-22.356402 5.84509-33.022624l-47.230033-26.196242a194.466564 194.466564 0 0 1-19.497854 15.743344c-20.649806 14.506062-40.31832 21.801758-58.834882 21.801759-18.772551 0-38.697054-7.338361-59.43219-22.185743a170.531561 170.531561 0 0 1-19.540519-16.212657l-49.363277 27.134869c2.730553 8.191659 5.84509 20.308487 5.84509 32.979959a109.094121 109.094121 0 0 1-94.844048 108.070164 258.122578 258.122578 0 0 0-3.285197 34.899879c0.298654 11.647515 1.365276 23.252364 3.285197 34.814549a108.923462 108.923462 0 0 1 94.844048 108.027499c0 12.628807-3.199867 24.7883-5.887755 33.022624l45.651432 25.513604c6.186409-5.887755 12.714137-11.43419 19.540519-16.511312 20.94846-15.27403 41.342277-23.12437 60.328153-23.12437 19.241865 0 39.763677 8.020999 60.925461 23.636349 6.869047 5.162452 13.43944 10.794217 19.625849 16.852631l47.784676-26.366902a108.155494 108.155494 0 0 1-5.75976-32.979959 108.880797 108.880797 0 0 1 94.801383-108.070164 264.522312 264.522312 0 0 0 3.285196-34.899879 264.522312 264.522312 0 0 0-3.285196-34.985209z m-217.078955 135.375693a101.030457 101.030457 0 0 1-100.859798-100.817133 100.902462 100.902462 0 0 1 201.719595 0 101.030457 101.030457 0 0 1-100.859797 100.817133z m0-147.663181c-26.238907 0-47.784676 20.692471-48.893963 46.931378a48.893963 48.893963 0 0 0 97.787926 0 48.936628 48.936628 0 0 0-48.893963-46.931378z m-146.340569-256.799967l-16.425982 12.799467c-33.449273 29.694763-97.275947 39.678347-139.428858 42.920878l-5.375776-0.127994c-11.860839 0-23.721678 0.597308-35.539852 1.706595h-0.511979l0.08533 0.042665c-190.797383 18.004583-340.636473 177.912587-340.636473 372.123162v57.042956h418.115911a340.039165 340.039165 0 0 0 40.787634 66.727887H33.705262a33.534603 33.534603 0 0 1-33.705262-33.321279v-90.449564c0-181.112454 109.819424-341.660431 279.796342-409.070956l19.28453-7.59435-16.340653-12.799467C218.87088 413.849423 182.307071 339.441857 182.307071 259.53052 182.307071 116.475147 299.635515 0 443.92817 0c144.292654 0 261.663764 116.432482 261.749093 259.53052 0 79.954002-36.691805 154.276238-100.433148 204.066163z m-161.27328-396.826132c-107.088871 0-194.210575 86.524395-194.210575 192.759969 0 106.320903 87.121703 192.845298 194.210575 192.845298s194.210575-86.48173 194.210574-192.845298c0-106.320903-87.079038-192.759968-194.210574-192.759969z" fill="#515151" p-id="1494"></path></svg>